<svg width="16" height="16" viewBox="0 0 16 16" fill="none" xmlns="http://www.w3.org/2000/svg">
<rect width="16" height="16" rx="2" fill="#409FFF"/>
<path d="M13.5917 4.00834C13.5142 3.93023 13.422 3.86824 13.3205 3.82593C13.2189 3.78362 13.11 3.76184 13 3.76184C12.89 3.76184 12.7811 3.78362 12.6795 3.82593C12.578 3.86824 12.4858 3.93023 12.4083 4.00834L6.20001 10.225L3.59168 7.60834C3.51124 7.53064 3.41629 7.46955 3.31224 7.42854C3.2082 7.38754 3.09709 7.36743 2.98528 7.36936C2.87346 7.3713 2.76312 7.39524 2.66055 7.43982C2.55799 7.48439 2.46521 7.54874 2.38751 7.62917C2.30981 7.70961 2.24872 7.80456 2.20771 7.9086C2.16671 8.01265 2.1466 8.12375 2.14853 8.23557C2.15047 8.34739 2.17441 8.45773 2.21899 8.56029C2.26356 8.66286 2.32791 8.75564 2.40834 8.83334L5.60834 12.0333C5.68581 12.1114 5.77798 12.1734 5.87953 12.2157C5.98108 12.2581 6.09 12.2798 6.20001 12.2798C6.31002 12.2798 6.41894 12.2581 6.52049 12.2157C6.62204 12.1734 6.71421 12.1114 6.79168 12.0333L13.5917 5.23334C13.6763 5.1553 13.7438 5.06059 13.7899 4.95518C13.8361 4.84976 13.86 4.73592 13.86 4.62084C13.86 4.50575 13.8361 4.39192 13.7899 4.2865C13.7438 4.18108 13.6763 4.08637 13.5917 4.00834V4.00834Z" fill="white"/>
</svg>
