<svg width="24" height="24" viewBox="0 0 24 24" fill="none" xmlns="http://www.w3.org/2000/svg">
<path d="M4 8.00098V7.25098C3.58579 7.25098 3.25 7.58676 3.25 8.00098H4ZM5 7V6.25C4.80094 6.25 4.61005 6.32913 4.46938 6.46996C4.3287 6.61079 4.24978 6.80177 4.25 7.00082L5 7ZM4.25 7.00098C4.25 7.13905 4.13807 7.25098 4 7.25098V8.75098C4.9665 8.75098 5.75 7.96747 5.75 7.00098H4.25ZM4.25 7.00082L4.25 7.00098H5.75C5.75 7.00182 5.75 6.99998 5.75 6.99918L4.25 7.00082ZM5 7.75H19.5V6.25H5V7.75ZM19.5 7.75C19.3619 7.75 19.25 7.63807 19.25 7.5H20.75C20.75 6.80964 20.1904 6.25 19.5 6.25V7.75ZM19.25 7.5V9.5H20.75V7.5H19.25ZM19.25 9.5C19.25 9.36193 19.3619 9.25 19.5 9.25V10.75C20.1904 10.75 20.75 10.1904 20.75 9.5H19.25ZM19.5 9.25H5V10.75H19.5V9.25ZM5 9.25C4.86193 9.25 4.75 9.13807 4.75 9H3.25C3.25 9.9665 4.0335 10.75 5 10.75V9.25ZM4.75 9V8.00098H3.25V9H4.75Z" fill="#929BAA"/>
<path d="M13 12V13C13 14.1046 12.1046 15 11 15H9" stroke="#929BAA" stroke-width="1.5"/>
<path d="M19 10L19.6709 10.3354C19.7871 10.1029 19.7747 9.82681 19.638 9.6057C19.5014 9.38459 19.26 9.25 19 9.25V10ZM18.2764 11.4472L17.6056 11.1118L17.6056 11.1118L18.2764 11.4472ZM8.77782 12V11.25C8.39566 11.25 8.07461 11.5374 8.03241 11.9172L8.77782 12ZM8.09888 18.1104L8.84429 18.1933L8.09888 18.1104ZM4.12342 17.8896L3.37801 17.8067L4.12342 17.8896ZM5.00004 10V9.25C4.61788 9.25 4.29683 9.53735 4.25463 9.91718L5.00004 10ZM9.00004 10.75H19V9.25H9.00004V10.75ZM18.3292 9.66459L17.6056 11.1118L18.9473 11.7826L19.6709 10.3354L18.3292 9.66459ZM17.6056 11.1118C17.5633 11.1965 17.4767 11.25 17.382 11.25V12.75C18.0449 12.75 18.6508 12.3755 18.9473 11.7826L17.6056 11.1118ZM17.382 11.25H8.77782V12.75H17.382V11.25ZM8.03241 11.9172L7.35347 18.0276L8.84429 18.1933L9.52323 12.0828L8.03241 11.9172ZM7.35347 18.0276C7.3394 18.1542 7.23239 18.25 7.105 18.25V19.75C7.99671 19.75 8.74582 19.0795 8.84429 18.1933L7.35347 18.0276ZM7.105 18.25H5.11731V19.75H7.105V18.25ZM5.11731 18.25C4.9683 18.25 4.85238 18.1205 4.86884 17.9724L3.37801 17.8067C3.26283 18.8434 4.07429 19.75 5.11731 19.75V18.25ZM4.86884 17.9724L5.74545 10.0828L4.25463 9.91718L3.37801 17.8067L4.86884 17.9724ZM5.00004 10.75H9.00004V9.25H5.00004V10.75Z" fill="#929BAA"/>
<path d="M18 6V7" stroke="#929BAA" stroke-width="1.5" stroke-linecap="round"/>
<path d="M8 7L6 10" stroke="#929BAA"/>
<path d="M10 7L8 10" stroke="#929BAA"/>
</svg>
